- 
http://www.Speed.Cd 
       
http://www.Speed.Cd       the fast  and The Hottest Private Tracker on the net

(((--Registration will be open on june every weekend--)))

Please Seed back to make the speed Faster!!!

and don't forget to visit      ...... http://www.Speed.Cd..........
-[img]http://img683.imageshack.us/img683/5615/hallpass794043144424500.jpg[/img]

[color=blue][size=5][b]Hall.Pass.2011.BDRip.XVID.AC3.HQ.Hive-CM8[/b][/size][/color]


[b]Thx Hive

CM8 Doing It Right The First Time :D

Source: Bluray

Video: 720x304 @bitrate 1800 2pass
Audio: English DTS to AC3 5.1 @448
Sample: yes included
Subs: yes english in srt /subs[/b]


[url]http://www.imdb.com/title/tt0480687/[/url]


General
Complete name                    : Hall.Pass.2011.BDRip.XVID.AC3.HQ.Hive-CM8.avi
Format                           : AVI
Format/Info                      : Audio Video Interleave
File size                        : 1.76 GiB
Duration                         : 1h 51mn
Overall bit rate                 : 2 259 Kbps
Writing application              : Nandub v1.0rc2
Writing library                  : Nandub build 1853/release

Video
ID                               : 0
Format                           : MPEG-4 Visual
Format profile                   : Advanced Simple@L5
Format settings, BVOP            : 1
Format settings, QPel            : Yes
Format settings, GMC             : No warppoints
Format settings, Matrix          : Default (H.263)
Muxing mode                      : Packed bitstream
Codec ID                         : XVID
Codec ID/Hint                    : XviD
Duration                         : 1h 51mn
Bit rate                         : 1 802 Kbps
Width                            : 720 pixels
Height                           : 304 pixels
Display aspect ratio             : 2.40:1
Frame rate                       : 23.976 fps
Color space                      : YUV
Chroma subsampling               : 4:2:0
Bit depth                        : 8 bits
Scan type                        : Progressive
Compression mode                 : Lossy
Bits/(Pixel*Frame)               : 0.343
Stream size                      : 1.40 GiB (80%)
Writing library                  : XviD 1.2.1 (UTC 2008-12-04)

Audio
ID                               : 1
Format                           : AC-3
Format/Info                      : Audio Coding 3
Mode extension                   : CM (complete main)
Codec ID                         : 2000
Duration                         : 1h 51mn
Bit rate mode                    : Constant
Bit rate                         : 448 Kbps
Channel(s)                       : 6 channels
Channel positions                : Front: L C R, Side: L R, LFE
Sampling rate                    : 48.0 KHz
Bit depth                        : 16 bits
Compression mode                 : Lossy
Stream size                      : 358 MiB (20%)
Alignment                        : Split accross interleaves
Interleave, duration             : 42 ms (1.00 video frame)
Interleave, preload duration     : 500 ms


Owen Wilson	 ... 	Rick
Jason Sudeikis	... 	Fred
Jenna Fischer	... 	Maggie
Christina Applegate	... 	Grace
Nicky Whelan	... 	Leigh
Richard Jenkins	... 	Coakley


A married man is granted the opportunity to have an affair by his wife. 
Joined in the fun by his best pal, things get a little out of control when 
both wives start engaging in extramarital activities as well. 

 

[img]http://img263.imageshack.us/img263/4756/76754372.png[/img]
[img]http://img862.imageshack.us/img862/1030/hahama.png[/img]
[img]http://img810.imageshack.us/img810/1298/hahhaa.png[/img]
[img]http://img825.imageshack.us/img825/4008/hahahaux.png[/img]
[img]http://img232.imageshack.us/img232/7900/hahahahahhaa.png[/img]
[img]http://img834.imageshack.us/img834/8985/hahahahhaah.png[/img]
[img]http://img830.imageshack.us/img830/2140/hahahahhaahhaa.png[/img]
[img]http://img534.imageshack.us/img534/280/hahahahhhaaahhaa.png[/img]
[img]http://img835.imageshack.us/img835/3152/hahahhaa.png[/img]
[img]http://img16.imageshack.us/img16/1531/hahahahhhaahaahahhaa.png[/img]
[img]http://img685.imageshack.us/img685/8712/hahahahhhaahaahhaa.png[/img]






Greetz

ViSiON,SANTi,MAGNET,THC,T0XiC,iNK,LKRG,IMAGiNE,WBZ,FLAWL3SS,NOVA
Vik,OneTwo,Rapeseed,D2U,SAFC,goldadvance,MEMORY100,KaN1vE,Unevano,Pinnz,Wayne,Mr Hive
and all P2P groups 
Great Work Guys :D

FYS

CM8@hushmail.com